<svg width="204" height="162" viewBox="0 0 204 162" fill="none" xmlns="http://www.w3.org/2000/svg">
<g id="Dot" filter="url(#filter0_d_1_4486)">
<circle id="Ellipse 5" cx="7.5" cy="3.5" r="3.5" fill="#F4F4F4"/>
<circle id="Ellipse 15" cx="7.5" cy="24.5" r="3.5" fill="#F4F4F4"/>
<circle id="Ellipse 25" cx="7.5" cy="45.5" r="3.5" fill="#F4F4F4"/>
<circle id="Ellipse 35" cx="7.5" cy="66.5" r="3.5" fill="#F4F4F4"/>
<circle id="Ellipse 45" cx="7.5" cy="87.5" r="3.5" fill="#F4F4F4"/>
<circle id="Ellipse 55" cx="7.5" cy="108.5" r="3.5" fill="#F4F4F4"/>
<circle id="Ellipse 65" cx="7.5" cy="129.5" r="3.5" fill="#F4F4F4"/>
<circle id="Ellipse 75" cx="7.5" cy="150.5" r="3.5" fill="#F4F4F4"/>
<circle id="Ellipse 6" cx="28.5" cy="3.5" r="3.5" fill="#F4F4F4"/>
<circle id="Ellipse 16" cx="28.5" cy="24.5" r="3.5" fill="#F4F4F4"/>
<circle id="Ellipse 26" cx="28.5" cy="45.5" r="3.5" fill="#F4F4F4"/>
<circle id="Ellipse 36" cx="28.5" cy="66.5" r="3.5" fill="#F4F4F4"/>
<circle id="Ellipse 46" cx="28.5" cy="87.5" r="3.5" fill="#F4F4F4"/>
<circle id="Ellipse 56" cx="28.5" cy="108.5" r="3.5" fill="#F4F4F4"/>
<circle id="Ellipse 66" cx="28.5" cy="129.5" r="3.5" fill="#F4F4F4"/>
<circle id="Ellipse 76" cx="28.5" cy="150.5" r="3.5" fill="#F4F4F4"/>
<circle id="Ellipse 7" cx="49.5" cy="3.5" r="3.5" fill="#F4F4F4"/>
<circle id="Ellipse 17" cx="49.5" cy="24.5" r="3.5" fill="#F4F4F4"/>
<circle id="Ellipse 27" cx="49.5" cy="45.5" r="3.5" fill="#F4F4F4"/>
<circle id="Ellipse 37" cx="49.5" cy="66.5" r="3.5" fill="#F4F4F4"/>
<circle id="Ellipse 47" cx="49.5" cy="87.5" r="3.5" fill="#F4F4F4"/>
<circle id="Ellipse 57" cx="49.5" cy="108.5" r="3.5" fill="#F4F4F4"/>
<circle id="Ellipse 67" cx="49.5" cy="129.5" r="3.5" fill="#F4F4F4"/>
<circle id="Ellipse 77" cx="49.5" cy="150.5" r="3.5" fill="#F4F4F4"/>
<circle id="Ellipse 8" cx="70.5" cy="3.5" r="3.5" fill="#F4F4F4"/>
<circle id="Ellipse 18" cx="70.5" cy="24.5" r="3.5" fill="#F4F4F4"/>
<circle id="Ellipse 28" cx="70.5" cy="45.5" r="3.5" fill="#F4F4F4"/>
<circle id="Ellipse 38" cx="70.5" cy="66.5" r="3.5" fill="#F4F4F4"/>
<circle id="Ellipse 48" cx="70.5" cy="87.5" r="3.5" fill="#F4F4F4"/>
<circle id="Ellipse 58" cx="70.5" cy="108.5" r="3.5" fill="#F4F4F4"/>
<circle id="Ellipse 68" cx="70.5" cy="129.5" r="3.5" fill="#F4F4F4"/>
<circle id="Ellipse 78" cx="70.5" cy="150.5" r="3.5" fill="#F4F4F4"/>
<circle id="Ellipse 9" cx="91.5" cy="3.5" r="3.5" fill="#F4F4F4"/>
<circle id="Ellipse 19" cx="91.5" cy="24.5" r="3.5" fill="#F4F4F4"/>
<circle id="Ellipse 29" cx="91.5" cy="45.5" r="3.5" fill="#F4F4F4"/>
<circle id="Ellipse 39" cx="91.5" cy="66.5" r="3.5" fill="#F4F4F4"/>
<circle id="Ellipse 49" cx="91.5" cy="87.5" r="3.5" fill="#F4F4F4"/>
<circle id="Ellipse 59" cx="91.5" cy="108.5" r="3.5" fill="#F4F4F4"/>
<circle id="Ellipse 69" cx="91.5" cy="129.5" r="3.5" fill="#F4F4F4"/>
<circle id="Ellipse 79" cx="91.5" cy="150.5" r="3.5" fill="#F4F4F4"/>
<circle id="Ellipse 10" cx="112.5" cy="3.5" r="3.5" fill="#F4F4F4"/>
<circle id="Ellipse 20" cx="112.5" cy="24.5" r="3.5" fill="#F4F4F4"/>
<circle id="Ellipse 30" cx="112.5" cy="45.5" r="3.5" fill="#F4F4F4"/>
<circle id="Ellipse 40" cx="112.5" cy="66.5" r="3.5" fill="#F4F4F4"/>
<circle id="Ellipse 50" cx="112.5" cy="87.5" r="3.5" fill="#F4F4F4"/>
<circle id="Ellipse 60" cx="112.5" cy="108.5" r="3.5" fill="#F4F4F4"/>
<circle id="Ellipse 70" cx="112.5" cy="129.5" r="3.5" fill="#F4F4F4"/>
<circle id="Ellipse 80" cx="112.5" cy="150.5" r="3.5" fill="#F4F4F4"/>
<circle id="Ellipse 11" cx="133.5" cy="3.5" r="3.5" fill="#F4F4F4"/>
<circle id="Ellipse 21" cx="133.5" cy="24.5" r="3.5" fill="#F4F4F4"/>
<circle id="Ellipse 31" cx="133.5" cy="45.5" r="3.5" fill="#F4F4F4"/>
<circle id="Ellipse 41" cx="133.5" cy="66.5" r="3.5" fill="#F4F4F4"/>
<circle id="Ellipse 51" cx="133.5" cy="87.5" r="3.5" fill="#F4F4F4"/>
<circle id="Ellipse 61" cx="133.5" cy="108.5" r="3.5" fill="#F4F4F4"/>
<circle id="Ellipse 71" cx="133.5" cy="129.5" r="3.5" fill="#F4F4F4"/>
<circle id="Ellipse 81" cx="133.5" cy="150.5" r="3.5" fill="#F4F4F4"/>
<circle id="Ellipse 12" cx="154.5" cy="3.5" r="3.5" fill="#F4F4F4"/>
<circle id="Ellipse 22" cx="154.5" cy="24.5" r="3.5" fill="#F4F4F4"/>
<circle id="Ellipse 32" cx="154.5" cy="45.5" r="3.5" fill="#F4F4F4"/>
<circle id="Ellipse 42" cx="154.5" cy="66.5" r="3.5" fill="#F4F4F4"/>
<circle id="Ellipse 52" cx="154.5" cy="87.5" r="3.5" fill="#F4F4F4"/>
<circle id="Ellipse 62" cx="154.5" cy="108.5" r="3.5" fill="#F4F4F4"/>
<circle id="Ellipse 72" cx="154.5" cy="129.5" r="3.5" fill="#F4F4F4"/>
<circle id="Ellipse 82" cx="154.5" cy="150.5" r="3.5" fill="#F4F4F4"/>
<circle id="Ellipse 13" cx="175.5" cy="3.5" r="3.5" fill="#F4F4F4"/>
<circle id="Ellipse 23" cx="175.5" cy="24.5" r="3.5" fill="#F4F4F4"/>
<circle id="Ellipse 33" cx="175.5" cy="45.5" r="3.5" fill="#F4F4F4"/>
<circle id="Ellipse 43" cx="175.5" cy="66.5" r="3.5" fill="#F4F4F4"/>
<circle id="Ellipse 53" cx="175.5" cy="87.5" r="3.5" fill="#F4F4F4"/>
<circle id="Ellipse 63" cx="175.5" cy="108.5" r="3.5" fill="#F4F4F4"/>
<circle id="Ellipse 73" cx="175.5" cy="129.5" r="3.5" fill="#F4F4F4"/>
<circle id="Ellipse 83" cx="175.5" cy="150.5" r="3.5" fill="#F4F4F4"/>
<circle id="Ellipse 14" cx="196.5" cy="3.5" r="3.5" fill="#F4F4F4"/>
<circle id="Ellipse 24" cx="196.5" cy="24.5" r="3.5" fill="#F4F4F4"/>
<circle id="Ellipse 34" cx="196.5" cy="45.5" r="3.5" fill="#F4F4F4"/>
<circle id="Ellipse 44" cx="196.5" cy="66.5" r="3.5" fill="#F4F4F4"/>
<circle id="Ellipse 54" cx="196.5" cy="87.5" r="3.5" fill="#F4F4F4"/>
<circle id="Ellipse 64" cx="196.5" cy="108.5" r="3.5" fill="#F4F4F4"/>
<circle id="Ellipse 74" cx="196.5" cy="129.5" r="3.5" fill="#F4F4F4"/>
<circle id="Ellipse 84" cx="196.5" cy="150.5" r="3.5" fill="#F4F4F4"/>
</g>
<defs>
<filter id="filter0_d_1_4486" x="0" y="0" width="204" height="162" filterUnits="userSpaceOnUse" color-interpolation-filters="sRGB">
<feFlood flood-opacity="0" result="BackgroundImageFix"/>
<feColorMatrix in="SourceAlpha" type="matrix" values="0 0 0 0 0 0 0 0 0 0 0 0 0 0 0 0 0 0 127 0" result="hardAlpha"/>
<feOffset dy="4"/>
<feGaussianBlur stdDeviation="2"/>
<feComposite in2="hardAlpha" operator="out"/>
<feColorMatrix type="matrix" values="0 0 0 0 0 0 0 0 0 0 0 0 0 0 0 0 0 0 0.25 0"/>
<feBlend mode="normal" in2="BackgroundImageFix" result="effect1_dropShadow_1_4486"/>
<feBlend mode="normal" in="SourceGraphic" in2="effect1_dropShadow_1_4486" result="shape"/>
</filter>
</defs>
</svg>
