<svg width="413" height="162" viewBox="0 0 413 162" fill="none" xmlns="http://www.w3.org/2000/svg">
<g filter="url(#filter0_d_12_6928)">
<circle cx="216.5" cy="3.5" r="3.5" fill="#E7F0FC"/>
<circle cx="216.5" cy="24.5" r="3.5" fill="#E7F0FC"/>
<circle cx="216.5" cy="45.5" r="3.5" fill="#E7F0FC"/>
<circle cx="216.5" cy="66.5" r="3.5" fill="#E7F0FC"/>
<circle cx="216.5" cy="87.5" r="3.5" fill="#E7F0FC"/>
<circle cx="216.5" cy="108.5" r="3.5" fill="#E7F0FC"/>
<circle cx="216.5" cy="129.5" r="3.5" fill="#E7F0FC"/>
<circle cx="216.5" cy="150.5" r="3.5" fill="#E7F0FC"/>
<circle cx="237.5" cy="3.5" r="3.5" fill="#E7F0FC"/>
<circle cx="237.5" cy="24.5" r="3.5" fill="#E7F0FC"/>
<circle cx="237.5" cy="45.5" r="3.5" fill="#E7F0FC"/>
<circle cx="237.5" cy="66.5" r="3.5" fill="#E7F0FC"/>
<circle cx="237.5" cy="87.5" r="3.5" fill="#E7F0FC"/>
<circle cx="237.5" cy="108.5" r="3.5" fill="#E7F0FC"/>
<circle cx="237.5" cy="129.5" r="3.5" fill="#E7F0FC"/>
<circle cx="237.5" cy="150.5" r="3.5" fill="#E7F0FC"/>
<circle cx="258.5" cy="3.5" r="3.5" fill="#E7F0FC"/>
<circle cx="258.5" cy="24.5" r="3.5" fill="#E7F0FC"/>
<circle cx="258.5" cy="45.5" r="3.5" fill="#E7F0FC"/>
<circle cx="258.5" cy="66.5" r="3.5" fill="#E7F0FC"/>
<circle cx="258.5" cy="87.5" r="3.5" fill="#E7F0FC"/>
<circle cx="258.5" cy="108.5" r="3.5" fill="#E7F0FC"/>
<circle cx="258.5" cy="129.5" r="3.5" fill="#E7F0FC"/>
<circle cx="258.5" cy="150.5" r="3.5" fill="#E7F0FC"/>
<circle cx="279.5" cy="3.5" r="3.5" fill="#E7F0FC"/>
<circle cx="279.5" cy="24.5" r="3.5" fill="#E7F0FC"/>
<circle cx="279.5" cy="45.5" r="3.5" fill="#E7F0FC"/>
<circle cx="279.5" cy="66.5" r="3.5" fill="#E7F0FC"/>
<circle cx="279.5" cy="87.5" r="3.5" fill="#E7F0FC"/>
<circle cx="279.5" cy="108.5" r="3.5" fill="#E7F0FC"/>
<circle cx="279.5" cy="129.5" r="3.5" fill="#E7F0FC"/>
<circle cx="279.5" cy="150.5" r="3.5" fill="#E7F0FC"/>
<circle cx="300.5" cy="3.5" r="3.5" fill="#E7F0FC"/>
<circle cx="300.5" cy="24.5" r="3.5" fill="#E7F0FC"/>
<circle cx="300.5" cy="45.5" r="3.5" fill="#E7F0FC"/>
<circle cx="300.5" cy="66.5" r="3.5" fill="#E7F0FC"/>
<circle cx="300.5" cy="87.5" r="3.5" fill="#E7F0FC"/>
<circle cx="300.5" cy="108.5" r="3.5" fill="#E7F0FC"/>
<circle cx="300.5" cy="129.5" r="3.5" fill="#E7F0FC"/>
<circle cx="300.5" cy="150.5" r="3.5" fill="#E7F0FC"/>
<circle cx="321.5" cy="3.5" r="3.5" fill="#E7F0FC"/>
<circle cx="321.5" cy="24.5" r="3.5" fill="#E7F0FC"/>
<circle cx="321.5" cy="45.5" r="3.5" fill="#E7F0FC"/>
<circle cx="321.5" cy="66.5" r="3.5" fill="#E7F0FC"/>
<circle cx="321.5" cy="87.5" r="3.5" fill="#E7F0FC"/>
<circle cx="321.5" cy="108.5" r="3.5" fill="#E7F0FC"/>
<circle cx="321.5" cy="129.5" r="3.5" fill="#E7F0FC"/>
<circle cx="321.5" cy="150.5" r="3.5" fill="#E7F0FC"/>
<circle cx="342.5" cy="3.5" r="3.5" fill="#E7F0FC"/>
<circle cx="342.5" cy="24.5" r="3.5" fill="#E7F0FC"/>
<circle cx="342.5" cy="45.5" r="3.5" fill="#E7F0FC"/>
<circle cx="342.5" cy="66.5" r="3.5" fill="#E7F0FC"/>
<circle cx="342.5" cy="87.5" r="3.5" fill="#E7F0FC"/>
<circle cx="342.5" cy="108.5" r="3.5" fill="#E7F0FC"/>
<circle cx="342.5" cy="129.5" r="3.5" fill="#E7F0FC"/>
<circle cx="342.5" cy="150.5" r="3.5" fill="#E7F0FC"/>
<circle cx="363.5" cy="3.5" r="3.5" fill="#E7F0FC"/>
<circle cx="363.5" cy="24.5" r="3.5" fill="#E7F0FC"/>
<circle cx="363.5" cy="45.5" r="3.5" fill="#E7F0FC"/>
<circle cx="363.5" cy="66.5" r="3.5" fill="#E7F0FC"/>
<circle cx="363.5" cy="87.5" r="3.5" fill="#E7F0FC"/>
<circle cx="363.5" cy="108.5" r="3.5" fill="#E7F0FC"/>
<circle cx="363.5" cy="129.5" r="3.5" fill="#E7F0FC"/>
<circle cx="363.5" cy="150.5" r="3.5" fill="#E7F0FC"/>
<circle cx="384.5" cy="3.5" r="3.5" fill="#E7F0FC"/>
<circle cx="384.5" cy="24.5" r="3.5" fill="#E7F0FC"/>
<circle cx="384.5" cy="45.5" r="3.5" fill="#E7F0FC"/>
<circle cx="384.5" cy="66.5" r="3.5" fill="#E7F0FC"/>
<circle cx="384.5" cy="87.5" r="3.5" fill="#E7F0FC"/>
<circle cx="384.5" cy="108.5" r="3.5" fill="#E7F0FC"/>
<circle cx="384.5" cy="129.5" r="3.5" fill="#E7F0FC"/>
<circle cx="384.5" cy="150.5" r="3.5" fill="#E7F0FC"/>
<circle cx="405.5" cy="3.5" r="3.5" fill="#E7F0FC"/>
<circle cx="405.5" cy="24.5" r="3.5" fill="#E7F0FC"/>
<circle cx="405.5" cy="45.5" r="3.5" fill="#E7F0FC"/>
<circle cx="405.5" cy="66.5" r="3.5" fill="#E7F0FC"/>
<circle cx="405.5" cy="87.5" r="3.5" fill="#E7F0FC"/>
<circle cx="405.5" cy="108.5" r="3.5" fill="#E7F0FC"/>
<circle cx="405.5" cy="129.5" r="3.5" fill="#E7F0FC"/>
<circle cx="405.5" cy="150.5" r="3.5" fill="#E7F0FC"/>
<circle cx="7.5" cy="3.5" r="3.5" fill="#E7F0FC"/>
<circle cx="7.5" cy="24.5" r="3.5" fill="#E7F0FC"/>
<circle cx="7.5" cy="45.5" r="3.5" fill="#E7F0FC"/>
<circle cx="7.5" cy="66.5" r="3.5" fill="#E7F0FC"/>
<circle cx="7.5" cy="87.5" r="3.5" fill="#E7F0FC"/>
<circle cx="7.5" cy="108.5" r="3.5" fill="#E7F0FC"/>
<circle cx="7.5" cy="129.5" r="3.5" fill="#E7F0FC"/>
<circle cx="7.5" cy="150.5" r="3.5" fill="#E7F0FC"/>
<circle cx="28.5" cy="3.5" r="3.5" fill="#E7F0FC"/>
<circle cx="28.5" cy="24.5" r="3.5" fill="#E7F0FC"/>
<circle cx="28.5" cy="45.5" r="3.5" fill="#E7F0FC"/>
<circle cx="28.5" cy="66.5" r="3.5" fill="#E7F0FC"/>
<circle cx="28.5" cy="87.5" r="3.5" fill="#E7F0FC"/>
<circle cx="28.5" cy="108.5" r="3.5" fill="#E7F0FC"/>
<circle cx="28.5" cy="129.5" r="3.5" fill="#E7F0FC"/>
<circle cx="28.5" cy="150.5" r="3.5" fill="#E7F0FC"/>
<circle cx="49.5" cy="3.5" r="3.5" fill="#E7F0FC"/>
<circle cx="49.5" cy="24.5" r="3.5" fill="#E7F0FC"/>
<circle cx="49.5" cy="45.5" r="3.5" fill="#E7F0FC"/>
<circle cx="49.5" cy="66.5" r="3.5" fill="#E7F0FC"/>
<circle cx="49.5" cy="87.5" r="3.5" fill="#E7F0FC"/>
<circle cx="49.5" cy="108.5" r="3.5" fill="#E7F0FC"/>
<circle cx="49.5" cy="129.5" r="3.5" fill="#E7F0FC"/>
<circle cx="49.5" cy="150.5" r="3.5" fill="#E7F0FC"/>
<circle cx="70.5" cy="3.5" r="3.5" fill="#E7F0FC"/>
<circle cx="70.5" cy="24.5" r="3.5" fill="#E7F0FC"/>
<circle cx="70.5" cy="45.5" r="3.5" fill="#E7F0FC"/>
<circle cx="70.5" cy="66.5" r="3.5" fill="#E7F0FC"/>
<circle cx="70.5" cy="87.5" r="3.5" fill="#E7F0FC"/>
<circle cx="70.5" cy="108.5" r="3.5" fill="#E7F0FC"/>
<circle cx="70.5" cy="129.5" r="3.5" fill="#E7F0FC"/>
<circle cx="70.5" cy="150.5" r="3.5" fill="#E7F0FC"/>
<circle cx="91.5" cy="3.5" r="3.5" fill="#E7F0FC"/>
<circle cx="91.5" cy="24.5" r="3.5" fill="#E7F0FC"/>
<circle cx="91.5" cy="45.5" r="3.5" fill="#E7F0FC"/>
<circle cx="91.5" cy="66.5" r="3.5" fill="#E7F0FC"/>
<circle cx="91.5" cy="87.5" r="3.5" fill="#E7F0FC"/>
<circle cx="91.5" cy="108.5" r="3.5" fill="#E7F0FC"/>
<circle cx="91.5" cy="129.5" r="3.5" fill="#E7F0FC"/>
<circle cx="91.5" cy="150.5" r="3.5" fill="#E7F0FC"/>
<circle cx="112.5" cy="3.5" r="3.5" fill="#E7F0FC"/>
<circle cx="112.5" cy="24.5" r="3.5" fill="#E7F0FC"/>
<circle cx="112.5" cy="45.5" r="3.5" fill="#E7F0FC"/>
<circle cx="112.5" cy="66.5" r="3.5" fill="#E7F0FC"/>
<circle cx="112.5" cy="87.5" r="3.5" fill="#E7F0FC"/>
<circle cx="112.5" cy="108.5" r="3.5" fill="#E7F0FC"/>
<circle cx="112.5" cy="129.5" r="3.5" fill="#E7F0FC"/>
<circle cx="112.5" cy="150.5" r="3.5" fill="#E7F0FC"/>
<circle cx="133.5" cy="3.5" r="3.5" fill="#E7F0FC"/>
<circle cx="133.5" cy="24.5" r="3.5" fill="#E7F0FC"/>
<circle cx="133.5" cy="45.5" r="3.5" fill="#E7F0FC"/>
<circle cx="133.5" cy="66.5" r="3.5" fill="#E7F0FC"/>
<circle cx="133.5" cy="87.5" r="3.5" fill="#E7F0FC"/>
<circle cx="133.5" cy="108.5" r="3.5" fill="#E7F0FC"/>
<circle cx="133.5" cy="129.5" r="3.5" fill="#E7F0FC"/>
<circle cx="133.5" cy="150.5" r="3.5" fill="#E7F0FC"/>
<circle cx="154.5" cy="3.5" r="3.5" fill="#E7F0FC"/>
<circle cx="154.5" cy="24.5" r="3.5" fill="#E7F0FC"/>
<circle cx="154.5" cy="45.5" r="3.5" fill="#E7F0FC"/>
<circle cx="154.5" cy="66.5" r="3.5" fill="#E7F0FC"/>
<circle cx="154.5" cy="87.5" r="3.5" fill="#E7F0FC"/>
<circle cx="154.5" cy="108.5" r="3.5" fill="#E7F0FC"/>
<circle cx="154.5" cy="129.5" r="3.5" fill="#E7F0FC"/>
<circle cx="154.5" cy="150.5" r="3.5" fill="#E7F0FC"/>
<circle cx="175.5" cy="3.5" r="3.5" fill="#E7F0FC"/>
<circle cx="175.5" cy="24.5" r="3.5" fill="#E7F0FC"/>
<circle cx="175.5" cy="45.5" r="3.5" fill="#E7F0FC"/>
<circle cx="175.5" cy="66.5" r="3.5" fill="#E7F0FC"/>
<circle cx="175.5" cy="87.5" r="3.5" fill="#E7F0FC"/>
<circle cx="175.5" cy="108.5" r="3.5" fill="#E7F0FC"/>
<circle cx="175.5" cy="129.5" r="3.5" fill="#E7F0FC"/>
<circle cx="175.5" cy="150.5" r="3.5" fill="#E7F0FC"/>
<circle cx="196.5" cy="3.5" r="3.5" fill="#E7F0FC"/>
<circle cx="196.5" cy="24.5" r="3.5" fill="#E7F0FC"/>
<circle cx="196.5" cy="45.5" r="3.5" fill="#E7F0FC"/>
<circle cx="196.5" cy="66.5" r="3.5" fill="#E7F0FC"/>
<circle cx="196.5" cy="87.5" r="3.5" fill="#E7F0FC"/>
<circle cx="196.5" cy="108.5" r="3.5" fill="#E7F0FC"/>
<circle cx="196.5" cy="129.5" r="3.5" fill="#E7F0FC"/>
<circle cx="196.5" cy="150.5" r="3.5" fill="#E7F0FC"/>
</g>
<defs>
<filter id="filter0_d_12_6928" x="0" y="0" width="413" height="162" filterUnits="userSpaceOnUse" color-interpolation-filters="sRGB">
<feFlood flood-opacity="0" result="BackgroundImageFix"/>
<feColorMatrix in="SourceAlpha" type="matrix" values="0 0 0 0 0 0 0 0 0 0 0 0 0 0 0 0 0 0 127 0" result="hardAlpha"/>
<feOffset dy="4"/>
<feGaussianBlur stdDeviation="2"/>
<feComposite in2="hardAlpha" operator="out"/>
<feColorMatrix type="matrix" values="0 0 0 0 0 0 0 0 0 0 0 0 0 0 0 0 0 0 0.25 0"/>
<feBlend mode="normal" in2="BackgroundImageFix" result="effect1_dropShadow_12_6928"/>
<feBlend mode="normal" in="SourceGraphic" in2="effect1_dropShadow_12_6928" result="shape"/>
</filter>
</defs>
</svg>
