<svg width="90" height="90" viewBox="0 0 90 90" fill="none" xmlns="http://www.w3.org/2000/svg">
<g id="." clip-path="url(#clip0_12_6373)">
<path id="Vector" d="M45.0832 72.8648C60.4267 72.8648 72.865 60.4264 72.865 45.0829C72.865 29.7394 60.4267 17.301 45.0832 17.301C29.7396 17.301 17.3013 29.7394 17.3013 45.0829C17.3013 60.4264 29.7396 72.8648 45.0832 72.8648Z" fill="#211E61"/>
<path id="Vector_2" d="M90 44.9998C90 69.8526 69.8528 89.9998 45 89.9998C20.1472 89.9998 0 69.8526 0 44.9998C0 20.1469 20.1472 -0.000244141 45 -0.000244141C69.8528 -0.000244141 90 20.1469 90 44.9998ZM9.01717 44.9998C9.01717 64.8725 25.1273 80.9826 45 80.9826C64.8727 80.9826 80.9829 64.8725 80.9829 44.9998C80.9829 25.1271 64.8727 9.01692 45 9.01692C25.1273 9.01692 9.01717 25.1271 9.01717 44.9998Z" fill="#211E61"/>
<path id="Vector_3" d="M64.0692 24.5774L52.2356 24.6087L46.8135 36.31L42.9827 36.4486L37.1763 48.4914L33.9112 48.299L26.162 65.5093L40.6442 48.3314L43.0238 48.1073L51.1669 36.5665L53.9093 36.3637L64.0692 24.5774Z" fill="white"/>
<path id="Vector_4" d="M58.209 57.0443C55.8629 59.3904 52.8844 61.0028 49.6372 61.6845C46.3899 62.3664 43.0145 62.0881 39.9229 60.8836C36.8311 59.6792 34.1571 57.6009 32.2268 54.9021C30.2966 52.2034 29.1938 49.001 29.0529 45.6861C28.9121 42.3711 29.7394 39.0868 31.434 36.2341C33.1285 33.3814 35.6167 31.0838 38.5952 29.6215C41.5735 28.1594 44.9133 27.5958 48.2066 27.9999C51.4998 28.404 54.6042 29.7579 57.141 31.8968L54.3437 35.2143C52.4512 33.6186 50.1352 32.6083 47.6782 32.3069C45.2211 32.0056 42.7295 32.426 40.5075 33.5168C38.2854 34.6078 36.4289 36.322 35.1647 38.4502C33.9005 40.5784 33.2834 43.0287 33.3883 45.502C33.4935 47.975 34.3161 50.3643 35.7563 52.3777C37.1963 54.391 39.1914 55.9416 41.498 56.8403C43.8045 57.7388 46.3229 57.9464 48.7456 57.4377C51.1681 56.9291 53.3901 55.7262 55.1406 53.9758L58.209 57.0443Z" fill="white"/>
<path id="Vector_5" d="M48.4104 43.0867H37.597V48.0774H48.4104V43.0867Z" fill="white"/>
<path id="Vector_6" d="M79.3531 44.9998C79.3531 63.9725 63.9727 79.3528 45 79.3528C26.0273 79.3528 10.647 63.9725 10.647 44.9998C10.647 26.0271 26.0273 10.6467 45 10.6467C63.9727 10.6467 79.3531 26.0271 79.3531 44.9998ZM12.1722 44.9998C12.1722 63.13 26.8698 77.8277 45 77.8277C63.1303 77.8277 77.8279 63.13 77.8279 44.9998C77.8279 26.8695 63.1303 12.1719 45 12.1719C26.8698 12.1719 12.1722 26.8695 12.1722 44.9998Z" fill="#211E61"/>
<path id="Vector_7" d="M8.47728 55.9758L7.97939 56.143C7.91908 55.9237 7.82228 55.7752 7.68898 55.6973C7.55567 55.6193 7.38437 55.6091 7.17511 55.6667L4.81041 56.317L4.65118 55.7381L7.00837 55.0898C7.27905 55.0154 7.50892 54.9959 7.69799 55.0316C7.88797 55.0657 8.04548 55.1605 8.17052 55.3162C8.29645 55.4702 8.39871 55.6902 8.47728 55.9758Z" fill="white"/>
<path id="Vector_8" d="M3.79828 51.9172L5.37459 51.5979C5.65484 51.541 5.90578 51.5427 6.12743 51.6024C6.34882 51.6611 6.53261 51.7731 6.67883 51.9383C6.82349 52.1026 6.92229 52.3153 6.97519 52.5764C7.02785 52.8363 7.01963 53.0707 6.95057 53.2796C6.88024 53.4887 6.75464 53.6641 6.57377 53.8055C6.39264 53.9456 6.16195 54.0441 5.88172 54.1009L4.30539 54.4202L4.18616 53.8318L5.68988 53.527C5.88987 53.4866 6.05171 53.4279 6.17538 53.3512C6.29881 53.2731 6.38497 53.178 6.4339 53.066C6.48153 52.9542 6.49064 52.8258 6.46121 52.6806C6.4318 52.5353 6.37339 52.4206 6.28602 52.3362C6.19735 52.252 6.08112 52.1986 5.93732 52.176C5.79323 52.1522 5.6212 52.1605 5.42122 52.2011L3.91751 52.5057L3.79828 51.9172Z" fill="white"/>
<path id="Vector_9" d="M6.03042 48.8972L5.55241 48.6475C5.61832 48.5526 5.67152 48.462 5.712 48.3755C5.75109 48.288 5.77861 48.2025 5.79454 48.1191C5.8092 48.0359 5.81334 47.9516 5.80697 47.8661C5.79944 47.7649 5.77866 47.6786 5.74465 47.6067C5.71063 47.535 5.66555 47.481 5.60942 47.4449C5.55319 47.4073 5.49008 47.3911 5.42009 47.3963C5.33844 47.4024 5.27168 47.4335 5.21981 47.4894C5.16794 47.5455 5.1244 47.6172 5.08922 47.7045C5.05262 47.7906 5.0185 47.8837 4.98686 47.9839C4.95503 48.0813 4.92001 48.1798 4.88179 48.279C4.84218 48.3771 4.79362 48.4688 4.73609 48.5538C4.67848 48.6377 4.60615 48.7075 4.51909 48.7636C4.43064 48.8183 4.32096 48.8506 4.19005 48.8604C4.01897 48.873 3.86803 48.8413 3.73724 48.7651C3.60633 48.6876 3.50159 48.5761 3.42299 48.4307C3.3444 48.2855 3.2979 48.1161 3.28351 47.9231C3.27338 47.7871 3.281 47.6443 3.30637 47.4953C3.33166 47.3447 3.37577 47.1935 3.43874 47.0416L3.94036 47.2407C3.89149 47.3369 3.8548 47.4394 3.83032 47.548C3.80583 47.6568 3.79706 47.7578 3.80401 47.8511C3.8103 47.9353 3.82877 48.0081 3.85941 48.0699C3.88997 48.1301 3.92988 48.176 3.97916 48.2075C4.02712 48.2391 4.08222 48.2525 4.14442 48.248C4.2183 48.2424 4.28058 48.2124 4.33124 48.1579C4.38061 48.1033 4.42305 48.0343 4.45854 47.9509C4.49392 47.8661 4.52889 47.7756 4.56341 47.6791C4.59773 47.5801 4.63591 47.4801 4.67791 47.3793C4.71982 47.2772 4.77149 47.1833 4.83289 47.098C4.89291 47.0115 4.96774 46.94 5.05739 46.8839C5.14565 46.8265 5.25458 46.7929 5.38419 46.7833C5.55527 46.7704 5.709 46.8047 5.84537 46.8857C5.98043 46.9669 6.0903 47.0857 6.17494 47.2424C6.2583 47.3991 6.30799 47.5849 6.32403 47.8002C6.3387 47.9972 6.321 48.1882 6.27091 48.373C6.22084 48.5578 6.14067 48.7326 6.03042 48.8972Z" fill="white"/>
<path id="Vector_10" d="M6.16954 43.4315L6.16588 44.0963L5.10588 44.7045L5.1032 45.1881L6.15983 45.1939L6.15652 45.7943L3.2323 45.7782L3.23842 44.6669C3.23972 44.4317 3.27787 44.2305 3.35288 44.0632C3.42787 43.896 3.5358 43.7686 3.67664 43.6809C3.8162 43.5921 3.98346 43.5481 4.17841 43.5491C4.37856 43.5503 4.54919 43.5987 4.69033 43.6944C4.83019 43.7887 4.93471 43.9231 5.00394 44.0976L6.16954 43.4315ZM4.62559 45.1854L4.62815 44.7195C4.62913 44.5415 4.59285 44.4047 4.51928 44.3094C4.44444 44.2129 4.33749 44.1642 4.19841 44.1635C4.05935 44.1627 3.95252 44.2101 3.8779 44.3059C3.80201 44.4004 3.76357 44.5366 3.76258 44.7146L3.76001 45.1806L4.62559 45.1854Z" fill="white"/>
<path id="Vector_11" d="M6.22698 42.5448L3.31335 42.2954L3.47431 40.415L3.99681 40.4598L3.88708 41.7417L4.54943 41.7985L4.65236 40.5962L5.1768 40.6411L5.07389 41.8434L5.75568 41.9018L5.86708 40.6004L6.38959 40.6451L6.22698 42.5448Z" fill="white"/>
<path id="Vector_12" d="M6.51399 39.6128L3.63141 39.1207L3.79248 38.1771C3.85197 37.8287 3.9624 37.5369 4.1238 37.3022C4.28518 37.0673 4.48541 36.8985 4.72447 36.7956C4.96354 36.6927 5.23041 36.6664 5.52507 36.7166C5.81846 36.7667 6.06149 36.8802 6.25417 37.0567C6.44555 37.2332 6.57842 37.4588 6.65276 37.7339C6.72711 38.0089 6.73455 38.3207 6.67506 38.6692L6.51399 39.6128ZM6.09807 38.9327L6.16172 38.5599C6.20108 38.3291 6.19857 38.1277 6.15415 37.9553C6.10869 37.7815 6.02453 37.6411 5.90165 37.5344C5.77773 37.4263 5.61775 37.3554 5.42174 37.322C5.22444 37.2884 5.05003 37.302 4.89851 37.3633C4.74723 37.4232 4.62192 37.5276 4.52263 37.6768C4.42226 37.8244 4.35239 38.0136 4.31303 38.2443L4.24938 38.6171L6.09807 38.9327Z" fill="white"/>
<path id="Vector_13" d="M7.84613 33.5621L7.66846 34.229L5.38763 35.0357L7.31665 35.5496L7.16207 36.1298L4.33636 35.3769L4.51402 34.7101L6.79862 33.9045L4.86583 33.3896L5.02041 32.8093L7.84613 33.5621Z" fill="white"/>
<path id="Vector_14" d="M8.60039 33.5531L8.09462 33.4115C8.16807 33.1963 8.1716 33.0189 8.10517 32.8795C8.03876 32.7401 7.90285 32.6353 7.69743 32.5653L5.37634 31.7732L5.57027 31.205L7.88397 31.9945C8.14964 32.0852 8.35065 32.1983 8.48697 32.3342C8.62493 32.4691 8.70183 32.6361 8.71769 32.8351C8.73519 33.0334 8.69608 33.2726 8.60039 33.5531Z" fill="white"/>
<path id="Vector_15" d="M8.89169 30.6478L8.64804 31.2286L6.40265 29.022L6.64781 28.4377L9.79463 28.4961L9.55099 29.0767L8.87935 29.0549L8.40562 30.1838L8.89169 30.6478ZM7.99645 29.7986L8.31855 29.031L7.15762 28.9964L7.99645 29.7986Z" fill="white"/>
<path id="Vector_16" d="M10.8994 26.3635L8.36578 24.9032L9.3081 23.2682L9.76246 23.53L9.11997 24.6448L9.69595 24.9769L10.2985 23.9313L10.7546 24.1941L10.152 25.2397L10.7449 25.5814L11.3971 24.4497L11.8514 24.7115L10.8994 26.3635Z" fill="white"/>
<path id="Vector_17" d="M13.4879 22.2478L12.4139 23.8279L9.99548 22.184L10.333 21.6874L12.3178 23.0365L13.0543 21.9531L13.4879 22.2478Z" fill="white"/>
<path id="Vector_18" d="M14.023 21.5331L11.733 19.7145L12.9067 18.2367L13.3173 18.5628L12.5171 19.5704L13.0377 19.9838L13.7882 19.0389L14.2004 19.3663L13.4499 20.3112L13.9857 20.7367L14.7981 19.714L15.2087 20.04L14.023 21.5331Z" fill="white"/>
<path id="Vector_19" d="M16.2965 18.8108L15.8859 19.249L13.7522 17.2492L14.1628 16.8111L15.2126 17.795C15.19 17.6937 15.1704 17.5987 15.1537 17.51C15.137 17.4213 15.1245 17.3473 15.1161 17.2878L14.9253 15.9974L15.4092 15.4811L15.6604 17.1859L17.6843 17.33L17.1524 17.8975L15.7491 17.7955L15.8356 18.3789L16.2965 18.8108Z" fill="white"/>
<path id="Vector_20" d="M19.1876 15.9596L18.7426 16.3627L17.1314 14.5841L16.4929 15.1626L16.1408 14.7739L17.8646 13.2125L18.2166 13.6012L17.5764 14.181L19.1876 15.9596Z" fill="white"/>
<path id="Vector_21" d="M22.3362 13.4165L21.8095 13.8221L20.6782 13.3596L20.2951 13.6545L20.9397 14.4917L20.464 14.8581L18.6799 12.5411L19.5605 11.8631C19.7468 11.7196 19.929 11.626 20.107 11.5825C20.2851 11.5389 20.452 11.5457 20.6075 11.603C20.7634 11.6585 20.9008 11.7635 21.0198 11.9179C21.1419 12.0765 21.2086 12.2409 21.2199 12.411C21.2314 12.5793 21.1895 12.7444 21.0943 12.9063L22.3362 13.4165ZM20.0036 13.2761L20.373 12.9918C20.514 12.8832 20.5995 12.7706 20.6295 12.654C20.6598 12.5356 20.6323 12.4213 20.5475 12.3111C20.4626 12.2009 20.3597 12.1458 20.2382 12.1458C20.1169 12.144 19.9858 12.1974 19.8448 12.306L19.4756 12.5902L20.0036 13.2761Z" fill="white"/>
<path id="Vector_22" d="M24.3025 12.1907C24.1148 12.3096 23.9212 12.3877 23.7217 12.4249C23.5226 12.4604 23.3276 12.4576 23.1372 12.4168C22.947 12.3742 22.7702 12.2955 22.6066 12.1806C22.4443 12.0651 22.3045 11.9151 22.1877 11.7307C22.0708 11.5463 21.9948 11.3559 21.9597 11.1597C21.9249 10.9617 21.9292 10.7681 21.9725 10.5791C22.0169 10.3894 22.0981 10.2126 22.2157 10.0488C22.3338 9.88312 22.4869 9.74082 22.6745 9.62186C22.8623 9.50288 23.0556 9.42569 23.2548 9.39027C23.4532 9.35375 23.6465 9.35661 23.8349 9.39882C24.0243 9.44034 24.2012 9.51908 24.3654 9.63501C24.5291 9.74985 24.6692 9.89947 24.7861 10.0839C24.9031 10.2683 24.9784 10.459 25.0125 10.6559C25.0465 10.8529 25.0421 11.0464 24.9995 11.2365C24.9574 11.4248 24.8778 11.6015 24.7606 11.7664C24.643 11.9303 24.4903 12.0717 24.3025 12.1907ZM24.0218 11.7477C24.1326 11.6774 24.2218 11.591 24.289 11.4883C24.3574 11.385 24.4026 11.2732 24.4249 11.1529C24.4466 11.0315 24.4446 10.9082 24.4189 10.7828C24.3938 10.6557 24.3433 10.5323 24.2674 10.4126C24.1915 10.293 24.1015 10.1946 23.9974 10.1176C23.8943 10.0398 23.7835 9.98535 23.6652 9.95414C23.5462 9.92182 23.4258 9.91506 23.3038 9.93388C23.1824 9.9509 23.0661 9.99453 22.9553 10.0648C22.8434 10.1358 22.753 10.2229 22.6847 10.3263C22.6168 10.4278 22.5715 10.5396 22.5487 10.6617C22.5266 10.782 22.528 10.9057 22.5532 11.0328C22.5795 11.1593 22.6306 11.2823 22.7063 11.402C22.7821 11.5216 22.8716 11.6203 22.9748 11.6981C23.0791 11.7751 23.1906 11.8298 23.3095 11.8621C23.4289 11.8926 23.5494 11.8994 23.671 11.8824C23.7929 11.8636 23.9099 11.8187 24.0218 11.7477Z" fill="white"/>
<path id="Vector_23" d="M27.4641 10.3317L26.9309 10.6075L25.8283 8.47598L25.0629 8.8719L24.822 8.40611L26.8877 7.33752L27.1286 7.80331L26.3615 8.20011L27.4641 10.3317Z" fill="white"/>
<path id="Vector_24" d="M28.9842 9.59548L27.8418 6.90353L29.5791 6.16638L29.7839 6.64914L28.5994 7.15174L28.8591 7.76371L29.97 7.29233L30.1756 7.77688L29.0647 8.24826L29.332 8.87818L30.5345 8.36795L30.7393 8.85071L28.9842 9.59548Z" fill="white"/>
<path id="Vector_25" d="M32.2822 8.29088L31.7123 8.4795L30.7936 5.70324L31.3638 5.51462L31.7477 6.6751L32.9488 6.27767L32.5649 5.11719L33.135 4.92859L34.0534 7.70485L33.4835 7.89345L33.1135 6.77555L31.9124 7.17298L32.2822 8.29088Z" fill="white"/>
<path id="Vector_26" d="M37.536 6.85328L36.8641 7.01071L35.0781 5.37876L35.5335 7.32243L34.9488 7.45939L34.2819 4.61223L34.9538 4.45481L36.7406 6.09054L36.2843 4.14307L36.8689 4.0061L37.536 6.85328Z" fill="white"/>
<path id="Vector_27" d="M38.5528 3.73389L37.9602 3.83054L38.4308 6.71668L39.0236 6.62003L38.5528 3.73389Z" fill="white"/>
<path id="Vector_28" d="M41.4907 3.06435L41.0365 3.10767L40.5469 2.49244L40.9585 2.4532L41.2418 2.85702L41.4456 2.40674L41.855 2.36768L41.4907 3.06435ZM42.6524 5.84018C42.5291 5.98511 42.3779 6.10397 42.1987 6.19678C42.0209 6.28948 41.8219 6.34631 41.602 6.36729C41.3821 6.38826 41.1748 6.37018 40.98 6.31304C40.7863 6.25448 40.614 6.16386 40.4624 6.04122C40.3122 5.91715 40.1903 5.76691 40.0965 5.59047C40.0025 5.41403 39.9452 5.21713 39.9244 4.99977C39.9038 4.78242 39.9228 4.57823 39.9817 4.38724C40.0404 4.19494 40.1317 4.02432 40.256 3.8754C40.3814 3.72634 40.5338 3.6054 40.7128 3.51259C40.8931 3.41836 41.0933 3.36077 41.3132 3.33978C41.532 3.31893 41.7374 3.3372 41.9296 3.39459C42.1217 3.45198 42.2921 3.54084 42.4406 3.66113L42.0633 4.12013C41.9723 4.02828 41.8658 3.95944 41.7441 3.91363C41.622 3.86652 41.4919 3.84955 41.3533 3.86276C41.2227 3.87522 41.1041 3.912 40.9976 3.97307C40.8923 4.03271 40.8026 4.11178 40.7284 4.21025C40.6543 4.30742 40.6002 4.41831 40.5664 4.54296C40.5325 4.6676 40.5223 4.79979 40.5356 4.93953C40.5493 5.08183 40.5844 5.21101 40.6411 5.32701C40.6978 5.44301 40.772 5.54235 40.8635 5.62501C40.9547 5.70639 41.0578 5.76706 41.1726 5.80702C41.2886 5.84558 41.4118 5.85863 41.5426 5.84617C41.681 5.83296 41.8051 5.7924 41.9147 5.72449C42.0257 5.65515 42.117 5.5668 42.1891 5.4594L42.6524 5.84018Z" fill="white"/>
<path id="Vector_29" d="M44.1487 6.16914L43.5482 6.17371L43.5261 3.24951L44.1264 3.24495L44.1374 4.68366C44.1952 4.59743 44.2506 4.51773 44.3033 4.44455C44.356 4.37135 44.4009 4.31123 44.4384 4.26415L45.2415 3.23647L45.9492 3.23108L44.8872 4.58827L46.178 6.1537L45.4003 6.15962L44.5069 5.0727L44.1439 5.53751L44.1487 6.16914Z" fill="white"/>
<path id="Vector_30" d="M47.3789 6.23203L46.7513 6.18059L48.1522 3.36133L48.7835 3.41308L49.7046 6.42266L49.0771 6.37122L48.8893 5.72598L47.6692 5.62597L47.3789 6.23203ZM47.9085 5.11744L48.7381 5.18545L48.4109 4.07106L47.9085 5.11744Z" fill="white"/>
<path id="Vector_31" d="M53.9893 3.9029L53.5448 3.8094L53.2609 3.07629L53.6633 3.16097L53.8155 3.63123L54.1441 3.26208L54.5448 3.34634L53.9893 3.9029ZM52.0063 6.47404L52.3792 6.08429C52.4519 6.17397 52.5242 6.25027 52.5959 6.31318C52.6693 6.37509 52.7437 6.42528 52.8192 6.46375C52.895 6.50095 52.9751 6.52838 53.0589 6.54604C53.1582 6.5669 53.2469 6.57097 53.3252 6.55823C53.4038 6.5455 53.4681 6.5172 53.5185 6.47335C53.5701 6.42977 53.6032 6.37364 53.6177 6.30496C53.6345 6.22483 53.6232 6.15208 53.5839 6.08669C53.5445 6.02129 53.4878 5.95955 53.4136 5.90146C53.341 5.84237 53.2612 5.78371 53.1737 5.7255C53.089 5.66781 53.0042 5.60682 52.9193 5.54251C52.8361 5.4772 52.7616 5.40508 52.6959 5.32618C52.6315 5.24754 52.5844 5.15862 52.5548 5.05944C52.5267 4.95922 52.5262 4.8449 52.5533 4.71644C52.5886 4.54857 52.661 4.4124 52.7706 4.30796C52.8816 4.20379 53.0176 4.13415 53.1792 4.09903C53.3405 4.06393 53.5161 4.06631 53.7055 4.10617C53.8391 4.13425 53.974 4.18123 54.1103 4.24706C54.2477 4.31317 54.3808 4.39758 54.5092 4.50031L54.1785 4.9268C54.0996 4.8531 54.0115 4.7894 53.9138 4.73567C53.8162 4.68194 53.7217 4.64544 53.63 4.62619C53.5475 4.60879 53.4723 4.60626 53.4046 4.61859C53.3382 4.6312 53.283 4.65677 53.2391 4.69533C53.1953 4.73263 53.167 4.7818 53.1542 4.84284C53.1389 4.91534 53.1506 4.98351 53.1888 5.04736C53.2276 5.10994 53.282 5.16987 53.3524 5.22716C53.4239 5.2847 53.5011 5.34346 53.5841 5.40343C53.6698 5.46392 53.7551 5.52837 53.8403 5.59676C53.9268 5.66542 54.0025 5.74111 54.0675 5.82384C54.1339 5.90555 54.1817 5.99728 54.2108 6.09901C54.2414 6.19976 54.2434 6.31372 54.2166 6.4409C54.1813 6.60879 54.1058 6.74695 53.99 6.85541C53.8744 6.9626 53.7297 7.03508 53.5558 7.07288C53.382 7.10937 53.1897 7.10543 52.9785 7.06103C52.7852 7.02037 52.6067 6.95029 52.443 6.85077C52.2793 6.75127 52.1338 6.62569 52.0063 6.47404Z" fill="white"/>
<path id="Vector_32" d="M55.5267 7.62644L54.951 7.45525L55.7848 4.65234L56.3603 4.82351L55.9502 6.20256C56.0307 6.13701 56.1069 6.07696 56.1786 6.02237C56.2505 5.96781 56.3112 5.92347 56.3606 5.88937L57.4291 5.14142L58.1075 5.34316L56.6952 6.33057L57.4719 8.205L56.7263 7.98324L56.1898 6.68263L55.7067 7.02101L55.5267 7.62644Z" fill="white"/>
<path id="Vector_33" d="M59.5016 9.05418C59.2955 8.97129 59.119 8.85971 58.9723 8.71947C58.8272 8.5785 58.7156 8.41878 58.6375 8.24029C58.561 8.06107 58.5218 7.87154 58.5194 7.67171C58.5183 7.47235 58.5585 7.27139 58.64 7.06881C58.7214 6.86622 58.8315 6.69337 58.9703 6.55025C59.1108 6.40642 59.2704 6.29691 59.4492 6.22168C59.629 6.14693 59.8199 6.1095 60.0217 6.10939C60.2251 6.10854 60.4299 6.14958 60.6362 6.23248C60.8423 6.31539 61.018 6.42732 61.163 6.56829C61.3086 6.70805 61.4192 6.86668 61.4949 7.04421C61.5718 7.22221 61.6112 7.41173 61.613 7.61277C61.6152 7.81262 61.5756 8.01383 61.4943 8.2164C61.4127 8.41899 61.3021 8.59159 61.162 8.73423C61.0221 8.87685 60.8624 8.98638 60.6833 9.0628C60.5058 9.13851 60.3158 9.17704 60.1136 9.17835C59.9119 9.17849 59.7079 9.1371 59.5016 9.05418ZM59.6973 8.56762C59.819 8.61659 59.9413 8.6384 60.0639 8.63308C60.1877 8.62822 60.305 8.59973 60.4156 8.54754C60.5267 8.49415 60.6257 8.42049 60.7124 8.32651C60.8009 8.23182 60.8716 8.11877 60.9245 7.98733C60.9774 7.85589 61.0045 7.72536 61.0063 7.59577C61.0092 7.46666 60.9887 7.34498 60.9449 7.23074C60.9017 7.11531 60.837 7.01358 60.7505 6.92558C60.6656 6.83686 60.5623 6.76802 60.4405 6.71904C60.3176 6.66958 60.1942 6.64729 60.0704 6.65213C59.9481 6.65626 59.831 6.68477 59.7187 6.73767C59.6081 6.78984 59.5084 6.86327 59.4199 6.95797C59.3326 7.05314 59.2626 7.16645 59.2097 7.29789C59.1569 7.42933 59.129 7.5596 59.1261 7.68871C59.1245 7.81832 59.1453 7.94083 59.1885 8.05628C59.2334 8.17099 59.2983 8.27271 59.383 8.36143C59.4695 8.44944 59.5743 8.51818 59.6973 8.56762Z" fill="white"/>
<path id="Vector_34" d="M63.4365 10.8271L61.7313 9.96547L63.05 7.35547L63.5861 7.62627L62.5037 9.76822L63.6729 10.359L63.4365 10.8271Z" fill="white"/>
<path id="Vector_35" d="M64.5871 11.4846L64.0502 11.1556L66.5719 9.27112L67.1122 9.60211L66.5769 12.7036L66.04 12.3747L66.1635 11.7141L65.1196 11.0746L64.5871 11.4846ZM65.5624 10.7286L66.2723 11.1635L66.4827 10.0212L65.5624 10.7286Z" fill="white"/>
<path id="Vector_36" d="M70.1132 12.7284L69.8101 12.4894L70.5628 11.9658L70.8109 12.1613L70.1132 12.7284ZM70.7164 13.2039L70.4118 12.9637L71.1646 12.4401L71.4141 12.6369L70.7164 13.2039Z" fill="white"/>
<path id="Vector_37" d="M71.5471 16.6996L71.0793 16.2694L72.2009 13.3279L72.6644 13.7542L71.7777 15.9794L73.9184 14.9077L74.3834 15.3353L71.5471 16.6996Z" fill="white"/>
<path id="Vector_38" d="M73.2162 18.3611L72.7937 17.8943L75.7437 16.7957L76.1691 17.2653L74.7827 20.0907L74.36 19.6241L74.6644 19.0249L73.8426 18.1174L73.2162 18.3611ZM74.365 17.9101L74.9236 18.5271L75.4471 17.4904L74.365 17.9101Z" fill="white"/>
<path id="Vector_39" d="M75.4262 20.4065L75.963 20.3548C75.9595 20.4702 75.9645 20.5752 75.9778 20.6697C75.993 20.7645 76.0166 20.851 76.0487 20.9295C76.0818 21.0072 76.1244 21.0801 76.1765 21.1483C76.238 21.229 76.3027 21.29 76.3703 21.3315C76.438 21.373 76.5053 21.3937 76.5721 21.3933C76.6396 21.394 76.7013 21.373 76.757 21.3305C76.8223 21.2807 76.8612 21.2183 76.874 21.1431C76.887 21.0678 76.8843 20.9841 76.866 20.8916C76.8495 20.7994 76.8274 20.7028 76.7991 20.6018C76.7725 20.5027 76.7482 20.4012 76.7259 20.297C76.7055 20.1932 76.6962 20.0901 76.698 19.9873C76.7005 19.8856 76.7228 19.7876 76.7652 19.6932C76.8093 19.5988 76.8835 19.512 76.988 19.4323C77.1242 19.3282 77.2681 19.2723 77.4193 19.2648C77.5712 19.2583 77.7199 19.2944 77.8652 19.3732C78.0102 19.4521 78.1416 19.5684 78.2593 19.7223C78.3419 19.8307 78.4135 19.9543 78.4737 20.0932C78.5348 20.233 78.5803 20.3839 78.6106 20.5454L78.0816 20.6525C78.0701 20.5454 78.0448 20.4394 78.0061 20.3351C77.9671 20.2307 77.9192 20.1413 77.8625 20.067C77.8113 19.9998 77.756 19.9488 77.6966 19.9139C77.6381 19.8801 77.5797 19.8635 77.5211 19.864C77.4637 19.8637 77.4102 19.8825 77.3606 19.9204C77.3017 19.9653 77.2659 20.0245 77.2533 20.0979C77.2418 20.1706 77.2438 20.2515 77.2598 20.3408C77.2764 20.4311 77.2965 20.5261 77.3203 20.6258C77.3456 20.7274 77.3682 20.8319 77.3882 20.9393C77.4088 21.0478 77.4168 21.1546 77.412 21.2598C77.409 21.3649 77.3852 21.4657 77.341 21.5617C77.2984 21.658 77.2253 21.7455 77.122 21.8244C76.9858 21.9285 76.8382 21.9839 76.6799 21.9904C76.5223 21.9962 76.3654 21.9566 76.2089 21.8718C76.0535 21.7859 75.9103 21.6573 75.7794 21.486C75.6596 21.329 75.5701 21.1593 75.511 20.9771C75.452 20.7948 75.4237 20.6046 75.4262 20.4065Z" fill="white"/>
<path id="Vector_40" d="M77.74 24.3113C77.6211 24.1236 77.5431 23.93 77.506 23.7303C77.4705 23.5312 77.4734 23.3364 77.5141 23.1459C77.5569 22.9558 77.6356 22.7791 77.7505 22.6154C77.866 22.453 78.016 22.3135 78.2005 22.1965C78.385 22.0797 78.5753 22.0037 78.7715 21.9686C78.9696 21.934 79.1631 21.9383 79.352 21.9818C79.5419 22.0262 79.7185 22.1072 79.8824 22.225C80.0481 22.3431 80.1903 22.4961 80.3093 22.6838C80.4282 22.8716 80.5052 23.0651 80.5407 23.2642C80.5771 23.4627 80.5743 23.656 80.532 23.8443C80.4904 24.0336 80.4118 24.2105 80.2958 24.3748C80.1808 24.5383 80.0313 24.6784 79.8468 24.7954C79.6623 24.9122 79.4717 24.9875 79.2747 25.0216C79.0777 25.0556 78.8842 25.0512 78.6941 25.0086C78.5058 24.9664 78.3291 24.8867 78.1642 24.7696C78.0004 24.6518 77.859 24.4991 77.74 24.3113ZM78.183 24.0306C78.2534 24.1416 78.3398 24.2308 78.4424 24.298C78.5457 24.3663 78.6575 24.4118 78.7778 24.434C78.8992 24.4555 79.0225 24.4535 79.1479 24.4281C79.275 24.4029 79.3985 24.3524 79.5181 24.2765C79.6379 24.2008 79.7362 24.1108 79.8132 24.0065C79.891 23.9034 79.9454 23.7927 79.9767 23.6745C80.0092 23.5555 80.0158 23.4351 79.997 23.3131C79.9801 23.1915 79.9365 23.0754 79.8663 22.9644C79.7952 22.8525 79.7081 22.7623 79.6047 22.6939C79.5033 22.6259 79.3915 22.5806 79.2694 22.5579C79.1491 22.5356 79.0255 22.5371 78.8982 22.5622C78.7718 22.5885 78.6488 22.6395 78.5291 22.7154C78.4095 22.7911 78.3106 22.8806 78.233 22.9837C78.1559 23.0879 78.1012 23.1995 78.0689 23.3184C78.0383 23.4377 78.0315 23.5583 78.0485 23.6798C78.0673 23.8017 78.1122 23.9187 78.183 24.0306Z" fill="white"/>
<path id="Vector_41" d="M79.9536 28.1821L79.6923 27.6091L82.8368 27.4569L83.0996 28.0333L80.9215 30.3055L80.6603 29.7324L81.1321 29.2539L80.6242 28.1398L79.9536 28.1821ZM81.1848 28.1007L81.5302 28.8581L82.3434 28.0288L81.1848 28.1007Z" fill="white"/>
<path id="Vector_42" d="M81.8344 32.836L81.1866 31.0387L83.9377 30.047L84.1413 30.612L81.8835 31.4258L82.3279 32.6582L81.8344 32.836Z" fill="white"/>
<path id="Vector_43" d="M85.0683 33.4514L84.8983 32.8755L82.0936 33.7033L82.2636 34.2792L85.0683 33.4514Z" fill="white"/>
<path id="Vector_44" d="M85.1753 36.9785C85.2406 36.8764 85.2834 36.7617 85.3034 36.635C85.3237 36.5094 85.3192 36.3806 85.2902 36.2487C85.2611 36.1166 85.2117 36.001 85.142 35.902C85.0723 35.8028 84.9863 35.7233 84.884 35.6633C84.7815 35.6034 84.6665 35.5648 84.5391 35.5477C84.4128 35.5302 84.2773 35.5373 84.1325 35.5691C83.988 35.6011 83.86 35.6518 83.7489 35.7215C83.6381 35.7925 83.5478 35.8775 83.4777 35.9769C83.4094 36.077 83.3631 36.1876 83.3392 36.3087C83.3155 36.431 83.3185 36.5594 83.3481 36.694C83.3728 36.8057 83.4124 36.9041 83.4669 36.9891C83.522 37.0757 83.5889 37.1474 83.6681 37.2044C83.7472 37.2616 83.8367 37.3031 83.9371 37.3289C84.0374 37.3561 84.1455 37.3663 84.2611 37.3595L84.0788 36.5312L84.5263 36.4327L84.8221 37.7769L84.605 37.8426C84.3879 37.8905 84.1819 37.9005 83.9868 37.8728C83.792 37.8466 83.616 37.7868 83.4583 37.6938C83.3021 37.6003 83.1698 37.4771 83.0615 37.324C82.9535 37.1721 82.8772 36.994 82.8321 36.7895C82.7855 36.5776 82.7797 36.3726 82.8146 36.1747C82.8499 35.9779 82.9198 35.7969 83.0244 35.6313C83.1294 35.4673 83.2636 35.3279 83.4275 35.2133C83.5925 35.0985 83.7803 35.018 83.9911 34.9715C84.2017 34.9251 84.4047 34.9191 84.5998 34.9532C84.7966 34.9885 84.977 35.0581 85.1408 35.1617C85.305 35.2665 85.4441 35.4003 85.5584 35.5628C85.6727 35.7253 85.753 35.9118 85.7994 36.1226C85.8427 36.3194 85.8503 36.5172 85.8222 36.7163C85.7943 36.9155 85.7327 37.1014 85.6376 37.2741L85.1753 36.9785Z" fill="white"/>
<path id="Vector_45" d="M83.6165 41.3498L83.5321 40.6904L84.5022 39.9471L84.4409 39.4676L83.3927 39.6017L83.3165 39.006L86.2172 38.635L86.3582 39.7373C86.388 39.9705 86.3769 40.1752 86.3246 40.3508C86.2725 40.5265 86.1824 40.6671 86.0543 40.7726C85.9279 40.8792 85.7678 40.9449 85.5745 40.9695C85.3759 40.995 85.2004 40.9695 85.0478 40.8935C84.8968 40.8185 84.7753 40.699 84.6837 40.5352L83.6165 41.3498ZM84.9146 39.4069L84.9738 39.8691C84.9964 40.0457 85.0505 40.1763 85.136 40.2612C85.223 40.347 85.3355 40.3811 85.4734 40.3635C85.6113 40.3457 85.7109 40.2845 85.7721 40.1796C85.8349 40.076 85.855 39.9359 85.8324 39.7593L85.7733 39.2971L84.9146 39.4069Z" fill="white"/>
<path id="Vector_46" d="M86.7079 44.6652L85.1009 44.7291C84.8153 44.7404 84.5677 44.6989 84.3585 44.6045C84.1493 44.5113 83.9857 44.3716 83.8677 44.1851C83.7511 43.9997 83.6875 43.774 83.6769 43.5078C83.6664 43.2428 83.7118 43.0127 83.8133 42.8176C83.9161 42.6223 84.068 42.4692 84.2691 42.3585C84.4703 42.249 84.7138 42.1886 84.9994 42.1773L86.6065 42.1134L86.6304 42.7133L85.0973 42.7743C84.8935 42.7823 84.7243 42.8144 84.59 42.8705C84.4558 42.9279 84.3555 43.0079 84.2893 43.1107C84.2245 43.2135 84.1949 43.339 84.2009 43.4869C84.2067 43.6349 84.2462 43.7577 84.3189 43.8548C84.3931 43.9522 84.4992 44.0234 84.6376 44.0686C84.776 44.115 84.9472 44.1343 85.1512 44.1262L86.6842 44.0651L86.7079 44.6652Z" fill="white"/>
<path id="Vector_47" d="M83.7727 45.7711L86.6931 45.9218L86.6437 46.8777C86.6256 47.2307 86.55 47.5334 86.4173 47.7856C86.2845 48.0376 86.1055 48.2287 85.8801 48.359C85.6549 48.4893 85.3928 48.5466 85.0944 48.5313C84.7971 48.5159 84.5424 48.4319 84.3305 48.2791C84.1197 48.1264 83.9612 47.9178 83.8552 47.6533C83.7491 47.3888 83.7051 47.08 83.7233 46.727L83.7727 45.7711ZM84.2654 46.3978L84.246 46.7754C84.2338 47.0092 84.2601 47.209 84.3243 47.375C84.3899 47.5423 84.4899 47.6718 84.6244 47.7633C84.7602 47.8561 84.9274 47.9077 85.126 47.918C85.3258 47.9283 85.4975 47.8942 85.6407 47.8157C85.784 47.7385 85.8961 47.62 85.9773 47.4602C86.0596 47.3018 86.1069 47.1058 86.1188 46.8721L86.1385 46.4944L84.2654 46.3978Z" fill="white"/>
<path id="Vector_48" d="M86.3496 50.2686L86.4214 49.6726L83.5182 49.3224L83.4463 49.9186L86.3496 50.2686Z" fill="white"/>
<path id="Vector_49" d="M86.192 53.1926L86.2663 52.7998L86.8623 53.1941L86.7683 53.6921L86.192 53.1926ZM83.1868 53.6211C83.082 53.4624 83.0098 53.2842 82.9703 53.0863C82.9308 52.8896 82.9314 52.6828 82.9725 52.4657C83.0134 52.2486 83.0885 52.0543 83.1974 51.8832C83.3076 51.7135 83.4425 51.5731 83.6025 51.4618C83.7634 51.3518 83.9415 51.2764 84.1372 51.2354C84.3328 51.1941 84.5378 51.1939 84.7524 51.2344C84.967 51.2749 85.1578 51.35 85.325 51.4594C85.4933 51.5694 85.6318 51.7047 85.7404 51.8654C85.8487 52.0272 85.9224 52.2072 85.9618 52.405C86.0022 52.6045 86.0019 52.8128 85.961 53.0299C85.9202 53.2456 85.8455 53.4379 85.7371 53.6066C85.6284 53.7752 85.4957 53.9142 85.3388 54.0234L85.0029 53.5334C85.1164 53.4715 85.212 53.3884 85.2901 53.2841C85.3691 53.1799 85.4216 53.0596 85.4474 52.9229C85.4717 52.794 85.4694 52.6699 85.4403 52.5506C85.4123 52.433 85.3613 52.3248 85.2874 52.2262C85.2147 52.1277 85.1232 52.045 85.0127 51.978C84.9024 51.9108 84.7783 51.8642 84.6404 51.8382C84.4998 51.8116 84.3661 51.8095 84.2388 51.8318C84.1116 51.854 83.9956 51.8976 83.8908 51.9625C83.7872 52.0276 83.7003 52.1097 83.63 52.2089C83.5608 52.3095 83.514 52.4243 83.4896 52.5534C83.4638 52.69 83.4683 52.8204 83.503 52.9447C83.5388 53.0706 83.5982 53.1829 83.6814 53.2821L83.1868 53.6211Z" fill="white"/>
<path id="Vector_50" d="M84.3395 55.9816L84.4213 55.6746L85.2182 56.091L85.1187 56.464L84.3395 55.9816ZM84.5369 55.2414L84.619 54.9343L85.4158 55.3507L85.3162 55.7237L84.5369 55.2414Z" fill="white"/>
<path id="Vector_51" d="M29.4646 84.1839L30.4654 81.4362L31.4052 81.7785C31.6359 81.8625 31.8212 81.973 31.961 82.1096C32.1024 82.2455 32.1929 82.3995 32.2325 82.5716C32.2726 82.7426 32.2578 82.9239 32.1879 83.1155C32.118 83.3074 32.0124 83.4569 31.8708 83.5644C31.7297 83.6707 31.5617 83.7312 31.3669 83.746C31.1733 83.7612 30.9617 83.7271 30.7321 83.6434L30.351 83.5047L30.0287 84.3894L29.4646 84.1839ZM30.5311 83.0101L30.8535 83.1275C31.0453 83.1974 31.2062 83.213 31.3365 83.1748C31.4682 83.1357 31.5597 83.0458 31.6108 82.9054C31.6612 82.7674 31.6482 82.6416 31.5719 82.5281C31.4973 82.4138 31.3642 82.3217 31.1726 82.252L30.8502 82.1345L30.5311 83.0101Z" fill="white"/>
<path id="Vector_52" d="M34.098 85.751C33.8833 85.6939 33.6944 85.6049 33.5316 85.4838C33.3704 85.3617 33.2399 85.2169 33.1405 85.0494C33.0426 84.8809 32.9803 84.6976 32.9535 84.4996C32.9279 84.3018 32.943 84.0975 32.9991 83.8864C33.055 83.6755 33.143 83.4903 33.2632 83.3313C33.3848 83.1712 33.5299 83.043 33.6979 82.9463C33.8675 82.85 34.0521 82.7894 34.2524 82.7645C34.4542 82.7387 34.6625 82.7543 34.8774 82.8112C35.0922 82.8681 35.2802 82.9576 35.4415 83.0797C35.6031 83.2005 35.7323 83.3444 35.8293 83.5113C35.9275 83.6785 35.9899 83.8618 36.0163 84.0611C36.0431 84.2591 36.0286 84.4637 35.9727 84.6746C35.9167 84.8857 35.828 85.0707 35.7065 85.2294C35.5853 85.3881 35.4402 85.5164 35.2719 85.6144C35.105 85.7112 34.9212 85.7728 34.7207 85.799C34.5204 85.8238 34.313 85.8079 34.098 85.751ZM34.2324 85.2441C34.3594 85.2777 34.4833 85.2843 34.6043 85.2639C34.7267 85.2439 34.8395 85.2011 34.9428 85.1358C35.0466 85.0692 35.1358 84.9839 35.2103 84.8801C35.2865 84.7751 35.3427 84.6543 35.379 84.5174C35.4154 84.3803 35.4264 84.2476 35.4121 84.1186C35.3991 83.9902 35.3638 83.8719 35.3065 83.764C35.2494 83.6547 35.1725 83.5617 35.0759 83.485C34.9809 83.4075 34.8699 83.3517 34.743 83.3181C34.6149 83.2842 34.4896 83.2772 34.3674 83.2972C34.2466 83.3163 34.1338 83.3591 34.0288 83.4253C33.9255 83.4906 33.8357 83.5758 33.7595 83.6806C33.6845 83.7858 33.6289 83.9069 33.5926 84.0438C33.5564 84.1807 33.5447 84.3135 33.5577 84.4419C33.572 84.5708 33.6076 84.6898 33.6647 84.7991C33.7234 84.9074 33.8002 85.0003 33.8952 85.078C33.9919 85.1547 34.1043 85.2101 34.2324 85.2441Z" fill="white"/>
<path id="Vector_53" d="M36.8618 86.3484L37.3367 83.4629L38.2813 83.6184C38.6301 83.6758 38.9224 83.7845 39.1582 83.9445C39.3939 84.1045 39.5641 84.3037 39.6684 84.5422C39.7727 84.7806 39.8005 85.0473 39.7519 85.3422C39.7037 85.636 39.5917 85.8796 39.4164 86.0734C39.241 86.2659 39.0161 86.4 38.7414 86.476C38.4668 86.552 38.1552 86.5612 37.8063 86.5038L36.8618 86.3484ZM37.5395 85.9283L37.9126 85.9899C38.1435 86.0278 38.345 86.0241 38.517 85.9787C38.6907 85.9321 38.8304 85.8471 38.9364 85.7237C39.0439 85.5991 39.1138 85.4387 39.146 85.2426C39.1786 85.045 39.1638 84.8708 39.1018 84.7196C39.0409 84.5687 38.9357 84.4439 38.7859 84.3456C38.6376 84.2461 38.4482 84.1772 38.2172 84.1393L37.8441 84.0779L37.5395 85.9283Z" fill="white"/>
<path id="Vector_54" d="M43.0175 84.8913C42.9378 84.7998 42.84 84.7266 42.7239 84.6717C42.6093 84.6168 42.4843 84.5847 42.3496 84.5754C42.2147 84.5661 42.0899 84.5809 41.9753 84.6198C41.8605 84.6589 41.7599 84.719 41.6735 84.8003C41.5872 84.8817 41.5176 84.981 41.4652 85.0986C41.413 85.2147 41.3817 85.3468 41.3714 85.4945C41.3613 85.6424 41.3739 85.7795 41.4093 85.9056C41.4463 86.0321 41.5025 86.1427 41.5779 86.2378C41.6549 86.3317 41.7479 86.4072 41.8573 86.4642C41.968 86.5215 42.0921 86.5547 42.2295 86.5642C42.3436 86.5722 42.4492 86.5619 42.5462 86.5335C42.6447 86.5052 42.7324 86.4611 42.8094 86.4012C42.8866 86.3415 42.9517 86.2671 43.0047 86.1783C43.059 86.0896 43.0992 85.9888 43.1253 85.8758L42.2792 85.8173L42.3108 85.3603L43.684 85.4553L43.6858 85.6822C43.6705 85.9038 43.6221 86.1044 43.5407 86.2838C43.4605 86.4633 43.3536 86.6155 43.2198 86.7404C43.0862 86.864 42.9307 86.9562 42.7532 87.0167C42.577 87.0776 42.3845 87.1007 42.1758 87.0863C41.9593 87.0713 41.761 87.0191 41.5809 86.9297C41.402 86.8406 41.248 86.7224 41.1187 86.5754C40.9908 86.4285 40.895 86.2603 40.8312 86.0708C40.7675 85.8802 40.7432 85.6772 40.758 85.4619C40.773 85.2467 40.8244 85.0504 40.9123 84.8727C41.0014 84.6939 41.1189 84.5405 41.2646 84.4124C41.4115 84.2845 41.579 84.1886 41.7672 84.1247C41.9553 84.0609 42.157 84.0364 42.3722 84.0514C42.5732 84.0652 42.7652 84.1138 42.9483 84.1968C43.1315 84.2798 43.2925 84.3913 43.4314 84.5312L43.0175 84.8913Z" fill="white"/>
<path id="Vector_55" d="M46.2956 87.1683C46.0735 87.1746 45.8671 87.1428 45.6766 87.073C45.4873 87.0016 45.3213 86.8998 45.1782 86.7674C45.0366 86.6336 44.9248 86.4757 44.8428 86.2934C44.7621 86.1111 44.7187 85.9108 44.7124 85.6925C44.7061 85.4743 44.738 85.2718 44.8081 85.0851C44.8793 84.8972 44.9819 84.733 45.1156 84.5927C45.2507 84.4523 45.4108 84.3417 45.5956 84.261C45.7817 84.1788 45.9859 84.1346 46.2081 84.1283C46.4302 84.1218 46.636 84.1542 46.8253 84.2256C47.0145 84.2954 47.1793 84.3968 47.3196 84.5292C47.4613 84.6616 47.5731 84.8196 47.6551 85.0033C47.7371 85.1855 47.7812 85.3858 47.7875 85.604C47.7937 85.8223 47.7612 86.0247 47.6899 86.2114C47.6185 86.3981 47.516 86.5622 47.3823 86.704C47.2499 86.8442 47.0912 86.9555 46.9062 87.0375C46.7213 87.1182 46.5179 87.1618 46.2956 87.1683ZM46.2805 86.6441C46.4117 86.6403 46.5325 86.6115 46.6428 86.5576C46.7543 86.5035 46.8504 86.4307 46.931 86.3387C47.0115 86.2453 47.0727 86.1382 47.1148 86.0174C47.158 85.8951 47.1777 85.7632 47.1737 85.6217C47.1695 85.4801 47.1424 85.3495 47.0922 85.23C47.0432 85.1106 46.9759 85.0071 46.8902 84.92C46.8044 84.8315 46.7042 84.7641 46.5897 84.718C46.4766 84.6704 46.3544 84.6486 46.2233 84.6524C46.0907 84.6563 45.9686 84.6851 45.8571 84.7391C45.7468 84.7917 45.6507 84.8646 45.5688 84.9581C45.4883 85.05 45.4264 85.1572 45.3832 85.2793C45.3411 85.4014 45.3221 85.5333 45.3263 85.6749C45.3302 85.8165 45.3569 85.9471 45.4058 86.0665C45.456 86.1861 45.5241 86.2901 45.6097 86.3786C45.6969 86.4658 45.7969 86.5331 45.9102 86.5805C46.0246 86.6266 46.1481 86.6478 46.2805 86.6441Z" fill="white"/>
<path id="Vector_56" d="M51.4579 86.6669L50.7979 86.7471L50.0608 85.7722L49.5808 85.8306L49.7084 86.8795L49.1124 86.9519L48.7595 84.0489L49.8626 83.915C50.0962 83.8865 50.3007 83.899 50.476 83.9522C50.6514 84.0056 50.7914 84.0966 50.8961 84.2252C51.0019 84.3525 51.0666 84.5129 51.09 84.7065C51.1142 84.9051 51.0877 85.0805 51.0105 85.2325C50.9347 85.3833 50.8144 85.5039 50.65 85.5945L51.4579 86.6669ZM49.5233 85.3563L49.9858 85.3002C50.1626 85.2786 50.2935 85.2254 50.3789 85.1405C50.4652 85.054 50.5 84.9417 50.4832 84.8038C50.4665 84.6658 50.4058 84.5658 50.3015 84.5037C50.1982 84.4403 50.0581 84.4194 49.8814 84.4408L49.4188 84.4971L49.5233 85.3563Z" fill="white"/>
<path id="Vector_57" d="M52.7232 83.4642L52.1331 83.5754L52.6744 86.449L53.2645 86.3379L52.7232 83.4642Z" fill="white"/>
<path id="Vector_58" d="M56.9811 85.0777C56.8823 85.2402 56.7517 85.3814 56.5894 85.5012C56.4272 85.6212 56.2397 85.7087 56.0271 85.7637C55.8118 85.8194 55.6042 85.8343 55.4042 85.8081C55.2038 85.7809 55.0191 85.7185 54.8502 85.6213C54.6824 85.5225 54.5382 85.3932 54.4177 85.2339C54.2973 85.0745 54.2096 84.889 54.1549 84.6776C54.1001 84.4663 54.0868 84.2617 54.1148 84.0637C54.1424 83.8646 54.2058 83.6817 54.3049 83.5151C54.4054 83.3482 54.5368 83.2046 54.699 83.0848C54.8611 82.9637 55.0495 82.8752 55.2646 82.8195C55.4761 82.7648 55.6812 82.7506 55.88 82.7771C56.08 82.803 56.263 82.8638 56.4287 82.9592L56.1284 83.472C56.0241 83.3956 55.9075 83.3445 55.7785 83.3187C55.6508 83.2915 55.52 83.2951 55.3868 83.3296C55.2597 83.3625 55.1484 83.4176 55.0529 83.4946C54.9582 83.5701 54.8822 83.6623 54.8245 83.7712C54.7664 83.8789 54.7305 83.997 54.7167 84.1254C54.703 84.2539 54.7137 84.3859 54.7489 84.5219C54.7847 84.6603 54.8398 84.7822 54.9141 84.8878C54.9885 84.9935 55.0773 85.0798 55.1806 85.147C55.2836 85.2131 55.3949 85.2567 55.5147 85.2781C55.6353 85.2979 55.7591 85.2913 55.8862 85.2585C56.0194 85.2239 56.1357 85.1643 56.2345 85.0797C56.3332 84.9936 56.4095 84.892 56.4636 84.7746L56.9811 85.0777Z" fill="white"/>
<path id="Vector_59" d="M58.6727 84.9188L58.0798 85.1309L58.1924 81.9849L58.789 81.7715L60.8698 84.1328L60.2769 84.3449L59.8397 83.8347L58.687 84.2471L58.6727 84.9188ZM58.695 83.6851L59.4788 83.4046L58.7209 82.5246L58.695 83.6851Z" fill="white"/>
</g>
<defs>
<clipPath id="clip0_12_6373">
<rect width="90" height="90" fill="white" transform="translate(0 -0.000244141)"/>
</clipPath>
</defs>
</svg>
