<svg width="24" height="24" viewBox="0 0 24 24" fill="none" xmlns="http://www.w3.org/2000/svg">
<path d="M10.1461 3.24988C10.2956 2.88059 10.5519 2.56433 10.8822 2.34165C11.2125 2.11897 11.6018 2 12.0001 2C12.3985 2 12.7878 2.11897 13.1181 2.34165C13.4484 2.56433 13.7047 2.88059 13.8541 3.24988C15.3329 3.65656 16.6373 4.53743 17.5669 5.75721C18.4966 6.97699 19.0001 8.46822 19.0002 10.0019V14.6989L20.8322 17.4469C20.9326 17.5975 20.9903 17.7725 20.9991 17.9534C21.0079 18.1342 20.9674 18.314 20.882 18.4736C20.7966 18.6333 20.6695 18.7667 20.5142 18.8598C20.3588 18.9528 20.1812 19.0019 20.0002 19.0019H15.4651C15.3447 19.835 14.9282 20.5968 14.2919 21.1478C13.6555 21.6988 12.8419 22.0021 12.0001 22.0021C11.1584 22.0021 10.3448 21.6988 9.70845 21.1478C9.07209 20.5968 8.65555 19.835 8.53515 19.0019H4.00015C3.81911 19.0019 3.64145 18.9528 3.48614 18.8598C3.33083 18.7667 3.20369 18.6333 3.11828 18.4736C3.03287 18.314 2.99239 18.1342 3.00118 17.9534C3.00996 17.7725 3.06767 17.5975 3.16815 17.4469L5.00015 14.6989V10.0019C5.00015 6.77788 7.18015 4.06188 10.1461 3.24988ZM10.5862 19.0019C10.6894 19.2945 10.8809 19.5479 11.1343 19.7272C11.3876 19.9064 11.6903 20.0027 12.0006 20.0027C12.311 20.0027 12.6137 19.9064 12.867 19.7272C13.1204 19.5479 13.3119 19.2945 13.4151 19.0019H10.5851H10.5862ZM12.0001 5.00188C10.6741 5.00188 9.4023 5.52866 8.46462 6.46634C7.52693 7.40403 7.00015 8.67579 7.00015 10.0019V15.0019C7.00019 15.1994 6.94174 15.3925 6.83215 15.5569L5.86915 17.0019H18.1301L17.1671 15.5569C17.0579 15.3924 16.9998 15.1993 17.0001 15.0019V10.0019C17.0001 8.67579 16.4734 7.40403 15.5357 6.46634C14.598 5.52866 13.3262 5.00188 12.0001 5.00188Z" fill="black"/>
</svg>
