<svg width="24" height="24" viewBox="0 0 24 24" fill="none" xmlns="http://www.w3.org/2000/svg">
<path d="M11.9996 22.0266C11.7329 22.0266 11.4786 21.9766 11.2366 21.8766C10.9946 21.7766 10.7739 21.6349 10.5746 21.4516L2.54961 13.4266C2.36628 13.2266 2.22461 13.0056 2.12461 12.7636C2.02461 12.5216 1.97461 12.2676 1.97461 12.0016C1.97461 11.7349 2.02461 11.4766 2.12461 11.2266C2.22461 10.9766 2.36628 10.7599 2.54961 10.5766L10.5746 2.55157C10.7746 2.35157 10.9956 2.20557 11.2376 2.11357C11.4796 2.02157 11.7336 1.9759 11.9996 1.97657C12.2663 1.97657 12.5246 2.02257 12.7746 2.11457C13.0246 2.20657 13.2413 2.35224 13.4246 2.55157L21.4496 10.5766C21.6496 10.7599 21.7956 10.9766 21.8876 11.2266C21.9796 11.4766 22.0253 11.7349 22.0246 12.0016C22.0246 12.2682 21.9789 12.5226 21.8876 12.7646C21.7963 13.0066 21.6503 13.2272 21.4496 13.4266L13.4246 21.4516C13.2413 21.6349 13.0246 21.7766 12.7746 21.8766C12.5246 21.9766 12.2663 22.0266 11.9996 22.0266ZM11.9996 20.0266L20.0246 12.0016L11.9996 3.97657L3.97461 12.0016L11.9996 20.0266ZM10.9996 13.0016H12.9996V7.00157H10.9996V13.0016ZM11.9996 16.0016C12.2829 16.0016 12.5206 15.9056 12.7126 15.7136C12.9046 15.5216 13.0003 15.2842 12.9996 15.0016C12.9996 14.7182 12.9036 14.4806 12.7116 14.2886C12.5196 14.0966 12.2823 14.0009 11.9996 14.0016C11.7163 14.0016 11.4786 14.0976 11.2866 14.2896C11.0946 14.4816 10.9989 14.7189 10.9996 15.0016C10.9996 15.2849 11.0956 15.5226 11.2876 15.7146C11.4796 15.9066 11.7169 16.0022 11.9996 16.0016Z" fill="black"/>
</svg>
